# xmcd
#
# Track frame offsets:
#	150
#	21180
#	39574
#	58016
#	78210
#	95933
#	117226
#	136544
#	154943
#	174559
#	193317
#	214057
#
# Disc length: 3097 seconds
#
# Revision: 3
# Processed by: cddbd v1.5.2PL0 Copyright (c) Steve Scherf et al.
# Submitted via: EasyCDDAExtractor 15.3.0.1
#
DISCID=a40c170c
DTITLE=Grupo Mania - Grupo Mania 2050
DYEAR=2001
DGENRE=Latin
TTITLE0=Caracolito
TTITLE1=Dame Una Razon
TTITLE2=Sacala A Bailar
TTITLE3=Como Mueve La Cinturita
TTITLE4=Celos Me Provoca
TTITLE5=De Niña A Mujer
TTITLE6=Imaginate
TTITLE7=Me Apareces Tu
TTITLE8=Usted De Mi Se Rio
TTITLE9=Vivir Soñando
TTITLE10=Asi Como Bailas
TTITLE11=Dame Una Razon (R&B Version)
EXTD=
EXTT0=
EXTT1=
EXTT2=
EXTT3=
EXTT4=
EXTT5=
EXTT6=
EXTT7=
EXTT8=
EXTT9=
EXTT10=
EXTT11=
PLAYORDER=
